<mxfile host="app.diagrams.net" agent="Mozilla/5.0 (Windows NT 10.0; Win64; x64) AppleWebKit/537.36 (KHTML, like Gecko) Chrome/136.0.0.0 Safari/537.36 Edg/136.0.0.0" version="27.0.4">
  <diagram id="6a731a19-8d31-9384-78a2-239565b7b9f0" name="Page-1">
    <mxGraphModel dx="1180" dy="638" grid="1" gridSize="10" guides="1" tooltips="1" connect="1" arrows="1" fold="1" page="1" pageScale="1" pageWidth="1169" pageHeight="827" background="none" math="0" shadow="0">
      <root>
        <mxCell id="0" />
        <mxCell id="1" parent="0" />
        <mxCell id="IgEq9ysrK7WXlDn_iTCa-55" value="Clint MacDonald&lt;div&gt;May 11, 2025&lt;/div&gt;&lt;div&gt;Week 2 - Demo&lt;/div&gt;" style="rounded=0;whiteSpace=wrap;html=1;" vertex="1" parent="1">
          <mxGeometry x="60" y="50" width="120" height="60" as="geometry" />
        </mxCell>
        <mxCell id="IgEq9ysrK7WXlDn_iTCa-70" value="" style="edgeStyle=orthogonalEdgeStyle;rounded=0;orthogonalLoop=1;jettySize=auto;html=1;" edge="1" parent="1" source="IgEq9ysrK7WXlDn_iTCa-56" target="IgEq9ysrK7WXlDn_iTCa-69">
          <mxGeometry relative="1" as="geometry" />
        </mxCell>
        <mxCell id="IgEq9ysrK7WXlDn_iTCa-56" value="Choose One Recipe" style="shape=parallelogram;html=1;strokeWidth=2;perimeter=parallelogramPerimeter;whiteSpace=wrap;rounded=1;arcSize=12;size=0.23;fillColor=#ffe6cc;strokeColor=#d79b00;" vertex="1" parent="1">
          <mxGeometry x="280" y="340" width="100" height="60" as="geometry" />
        </mxCell>
        <mxCell id="IgEq9ysrK7WXlDn_iTCa-57" value="DECISION" style="strokeWidth=2;html=1;shape=mxgraph.flowchart.decision;whiteSpace=wrap;" vertex="1" parent="1">
          <mxGeometry x="400" y="40" width="100" height="100" as="geometry" />
        </mxCell>
        <mxCell id="IgEq9ysrK7WXlDn_iTCa-66" value="" style="edgeStyle=orthogonalEdgeStyle;rounded=0;orthogonalLoop=1;jettySize=auto;html=1;" edge="1" parent="1" source="IgEq9ysrK7WXlDn_iTCa-58" target="IgEq9ysrK7WXlDn_iTCa-56">
          <mxGeometry relative="1" as="geometry" />
        </mxCell>
        <mxCell id="IgEq9ysrK7WXlDn_iTCa-58" value="Find Recipies" style="rounded=1;whiteSpace=wrap;html=1;absoluteArcSize=1;arcSize=14;strokeWidth=2;" vertex="1" parent="1">
          <mxGeometry x="147.5" y="340" width="85" height="60" as="geometry" />
        </mxCell>
        <mxCell id="IgEq9ysrK7WXlDn_iTCa-59" value="MANUAL&lt;div&gt;INPUT&lt;/div&gt;" style="html=1;strokeWidth=2;shape=manualInput;whiteSpace=wrap;rounded=1;size=26;arcSize=11;" vertex="1" parent="1">
          <mxGeometry x="260" y="130" width="100" height="60" as="geometry" />
        </mxCell>
        <mxCell id="IgEq9ysrK7WXlDn_iTCa-60" value="TERMINATOR&lt;div&gt;Start/Stop&lt;/div&gt;" style="strokeWidth=2;html=1;shape=mxgraph.flowchart.terminator;whiteSpace=wrap;" vertex="1" parent="1">
          <mxGeometry x="510" y="140" width="100" height="60" as="geometry" />
        </mxCell>
        <mxCell id="IgEq9ysrK7WXlDn_iTCa-62" value="WorkFlow" style="endArrow=classic;html=1;rounded=0;" edge="1" parent="1">
          <mxGeometry width="50" height="50" relative="1" as="geometry">
            <mxPoint x="700" y="110" as="sourcePoint" />
            <mxPoint x="750" y="60" as="targetPoint" />
          </mxGeometry>
        </mxCell>
        <mxCell id="IgEq9ysrK7WXlDn_iTCa-65" value="" style="edgeStyle=orthogonalEdgeStyle;rounded=0;orthogonalLoop=1;jettySize=auto;html=1;" edge="1" parent="1" source="IgEq9ysrK7WXlDn_iTCa-63" target="IgEq9ysrK7WXlDn_iTCa-58">
          <mxGeometry relative="1" as="geometry" />
        </mxCell>
        <mxCell id="IgEq9ysrK7WXlDn_iTCa-63" value="START" style="strokeWidth=2;html=1;shape=mxgraph.flowchart.terminator;whiteSpace=wrap;fillColor=#d5e8d4;strokeColor=#82b366;" vertex="1" parent="1">
          <mxGeometry x="140" y="250" width="100" height="60" as="geometry" />
        </mxCell>
        <mxCell id="IgEq9ysrK7WXlDn_iTCa-67" value="DATA" style="shape=parallelogram;html=1;strokeWidth=2;perimeter=parallelogramPerimeter;whiteSpace=wrap;rounded=1;arcSize=12;size=0.23;" vertex="1" parent="1">
          <mxGeometry x="260" y="30" width="100" height="60" as="geometry" />
        </mxCell>
        <mxCell id="IgEq9ysrK7WXlDn_iTCa-68" value="PROCESS" style="rounded=1;whiteSpace=wrap;html=1;absoluteArcSize=1;arcSize=14;strokeWidth=2;" vertex="1" parent="1">
          <mxGeometry x="517.5" y="50" width="85" height="60" as="geometry" />
        </mxCell>
        <mxCell id="IgEq9ysrK7WXlDn_iTCa-73" value="YES" style="edgeStyle=orthogonalEdgeStyle;rounded=0;orthogonalLoop=1;jettySize=auto;html=1;exitX=0;exitY=0.5;exitDx=0;exitDy=0;exitPerimeter=0;entryX=0;entryY=0.5;entryDx=0;entryDy=0;" edge="1" parent="1" source="IgEq9ysrK7WXlDn_iTCa-109" target="IgEq9ysrK7WXlDn_iTCa-117">
          <mxGeometry relative="1" as="geometry">
            <mxPoint x="210" y="990" as="sourcePoint" />
            <mxPoint x="280" y="990" as="targetPoint" />
            <Array as="points">
              <mxPoint x="40" y="600" />
              <mxPoint x="40" y="780" />
            </Array>
          </mxGeometry>
        </mxCell>
        <mxCell id="IgEq9ysrK7WXlDn_iTCa-69" value="Use this one?" style="strokeWidth=2;html=1;shape=mxgraph.flowchart.decision;whiteSpace=wrap;fillColor=#dae8fc;strokeColor=#6c8ebf;" vertex="1" parent="1">
          <mxGeometry x="280" y="440" width="100" height="100" as="geometry" />
        </mxCell>
        <mxCell id="IgEq9ysrK7WXlDn_iTCa-71" value="NO" style="endArrow=classic;html=1;rounded=0;exitX=0;exitY=0.5;exitDx=0;exitDy=0;exitPerimeter=0;entryX=0;entryY=1;entryDx=0;entryDy=0;" edge="1" parent="1" source="IgEq9ysrK7WXlDn_iTCa-69" target="IgEq9ysrK7WXlDn_iTCa-56">
          <mxGeometry width="50" height="50" relative="1" as="geometry">
            <mxPoint x="710" y="120" as="sourcePoint" />
            <mxPoint x="760" y="70" as="targetPoint" />
          </mxGeometry>
        </mxCell>
        <mxCell id="IgEq9ysrK7WXlDn_iTCa-123" value="" style="edgeStyle=orthogonalEdgeStyle;rounded=0;orthogonalLoop=1;jettySize=auto;html=1;" edge="1" parent="1" source="IgEq9ysrK7WXlDn_iTCa-72" target="IgEq9ysrK7WXlDn_iTCa-122">
          <mxGeometry relative="1" as="geometry" />
        </mxCell>
        <mxCell id="IgEq9ysrK7WXlDn_iTCa-124" value="NO" style="edgeLabel;html=1;align=center;verticalAlign=middle;resizable=0;points=[];" vertex="1" connectable="0" parent="IgEq9ysrK7WXlDn_iTCa-123">
          <mxGeometry x="0.0222" relative="1" as="geometry">
            <mxPoint as="offset" />
          </mxGeometry>
        </mxCell>
        <mxCell id="IgEq9ysrK7WXlDn_iTCa-72" value="Have&lt;div&gt;Ingredients?&lt;/div&gt;" style="strokeWidth=2;html=1;shape=mxgraph.flowchart.decision;whiteSpace=wrap;fillColor=#dae8fc;strokeColor=#6c8ebf;" vertex="1" parent="1">
          <mxGeometry x="450" y="440" width="100" height="100" as="geometry" />
        </mxCell>
        <mxCell id="IgEq9ysrK7WXlDn_iTCa-77" value="" style="edgeStyle=orthogonalEdgeStyle;rounded=0;orthogonalLoop=1;jettySize=auto;html=1;" edge="1" parent="1" source="IgEq9ysrK7WXlDn_iTCa-74" target="IgEq9ysrK7WXlDn_iTCa-76">
          <mxGeometry relative="1" as="geometry" />
        </mxCell>
        <mxCell id="IgEq9ysrK7WXlDn_iTCa-74" value="Go to Store" style="rounded=1;whiteSpace=wrap;html=1;absoluteArcSize=1;arcSize=14;strokeWidth=2;" vertex="1" parent="1">
          <mxGeometry x="610" y="320" width="85" height="60" as="geometry" />
        </mxCell>
        <mxCell id="IgEq9ysrK7WXlDn_iTCa-79" value="" style="edgeStyle=orthogonalEdgeStyle;rounded=0;orthogonalLoop=1;jettySize=auto;html=1;" edge="1" parent="1" source="IgEq9ysrK7WXlDn_iTCa-76" target="IgEq9ysrK7WXlDn_iTCa-78">
          <mxGeometry relative="1" as="geometry" />
        </mxCell>
        <mxCell id="IgEq9ysrK7WXlDn_iTCa-76" value="Buy Missing Ingredients" style="rounded=1;whiteSpace=wrap;html=1;absoluteArcSize=1;arcSize=14;strokeWidth=2;" vertex="1" parent="1">
          <mxGeometry x="725" y="320" width="85" height="60" as="geometry" />
        </mxCell>
        <mxCell id="IgEq9ysrK7WXlDn_iTCa-90" value="" style="edgeStyle=orthogonalEdgeStyle;rounded=0;orthogonalLoop=1;jettySize=auto;html=1;" edge="1" parent="1" source="IgEq9ysrK7WXlDn_iTCa-78" target="IgEq9ysrK7WXlDn_iTCa-89">
          <mxGeometry relative="1" as="geometry" />
        </mxCell>
        <mxCell id="IgEq9ysrK7WXlDn_iTCa-78" value="Preheat Oven to 400 C" style="rounded=1;whiteSpace=wrap;html=1;absoluteArcSize=1;arcSize=14;strokeWidth=2;" vertex="1" parent="1">
          <mxGeometry x="680" y="460" width="85" height="60" as="geometry" />
        </mxCell>
        <mxCell id="IgEq9ysrK7WXlDn_iTCa-80" value="YES" style="endArrow=classic;html=1;rounded=0;exitX=1;exitY=0.5;exitDx=0;exitDy=0;exitPerimeter=0;entryX=0;entryY=0.5;entryDx=0;entryDy=0;" edge="1" parent="1" source="IgEq9ysrK7WXlDn_iTCa-72" target="IgEq9ysrK7WXlDn_iTCa-78">
          <mxGeometry width="50" height="50" relative="1" as="geometry">
            <mxPoint x="710" y="120" as="sourcePoint" />
            <mxPoint x="760" y="70" as="targetPoint" />
          </mxGeometry>
        </mxCell>
        <mxCell id="IgEq9ysrK7WXlDn_iTCa-85" value="" style="edgeStyle=orthogonalEdgeStyle;rounded=0;orthogonalLoop=1;jettySize=auto;html=1;" edge="1" parent="1" source="IgEq9ysrK7WXlDn_iTCa-82" target="IgEq9ysrK7WXlDn_iTCa-84">
          <mxGeometry relative="1" as="geometry" />
        </mxCell>
        <mxCell id="IgEq9ysrK7WXlDn_iTCa-82" value="Mix Cookie Dough" style="rounded=1;whiteSpace=wrap;html=1;absoluteArcSize=1;arcSize=14;strokeWidth=2;" vertex="1" parent="1">
          <mxGeometry x="940" y="460" width="85" height="60" as="geometry" />
        </mxCell>
        <mxCell id="IgEq9ysrK7WXlDn_iTCa-87" value="" style="edgeStyle=orthogonalEdgeStyle;rounded=0;orthogonalLoop=1;jettySize=auto;html=1;" edge="1" parent="1" source="IgEq9ysrK7WXlDn_iTCa-84" target="IgEq9ysrK7WXlDn_iTCa-86">
          <mxGeometry relative="1" as="geometry" />
        </mxCell>
        <mxCell id="IgEq9ysrK7WXlDn_iTCa-84" value="Grease Cookie Pan" style="rounded=1;whiteSpace=wrap;html=1;absoluteArcSize=1;arcSize=14;strokeWidth=2;" vertex="1" parent="1">
          <mxGeometry x="1070" y="460" width="85" height="60" as="geometry" />
        </mxCell>
        <mxCell id="IgEq9ysrK7WXlDn_iTCa-92" value="" style="edgeStyle=orthogonalEdgeStyle;rounded=0;orthogonalLoop=1;jettySize=auto;html=1;" edge="1" parent="1" source="IgEq9ysrK7WXlDn_iTCa-86" target="IgEq9ysrK7WXlDn_iTCa-88">
          <mxGeometry relative="1" as="geometry" />
        </mxCell>
        <mxCell id="IgEq9ysrK7WXlDn_iTCa-86" value="Roll Dough into 1 inch Balls" style="rounded=1;whiteSpace=wrap;html=1;absoluteArcSize=1;arcSize=14;strokeWidth=2;" vertex="1" parent="1">
          <mxGeometry x="1070" y="570" width="85" height="60" as="geometry" />
        </mxCell>
        <mxCell id="IgEq9ysrK7WXlDn_iTCa-94" value="" style="edgeStyle=orthogonalEdgeStyle;rounded=0;orthogonalLoop=1;jettySize=auto;html=1;" edge="1" parent="1" source="IgEq9ysrK7WXlDn_iTCa-88" target="IgEq9ysrK7WXlDn_iTCa-93">
          <mxGeometry relative="1" as="geometry" />
        </mxCell>
        <mxCell id="IgEq9ysrK7WXlDn_iTCa-88" value="Place on Pan" style="rounded=1;whiteSpace=wrap;html=1;absoluteArcSize=1;arcSize=14;strokeWidth=2;" vertex="1" parent="1">
          <mxGeometry x="940" y="570" width="85" height="60" as="geometry" />
        </mxCell>
        <mxCell id="IgEq9ysrK7WXlDn_iTCa-91" value="" style="edgeStyle=orthogonalEdgeStyle;rounded=0;orthogonalLoop=1;jettySize=auto;html=1;" edge="1" parent="1" source="IgEq9ysrK7WXlDn_iTCa-89" target="IgEq9ysrK7WXlDn_iTCa-82">
          <mxGeometry relative="1" as="geometry" />
        </mxCell>
        <mxCell id="IgEq9ysrK7WXlDn_iTCa-89" value="Get out bowls and Tools" style="rounded=1;whiteSpace=wrap;html=1;absoluteArcSize=1;arcSize=14;strokeWidth=2;" vertex="1" parent="1">
          <mxGeometry x="810" y="460" width="85" height="60" as="geometry" />
        </mxCell>
        <mxCell id="IgEq9ysrK7WXlDn_iTCa-96" value="YES" style="edgeStyle=orthogonalEdgeStyle;rounded=0;orthogonalLoop=1;jettySize=auto;html=1;" edge="1" parent="1" source="IgEq9ysrK7WXlDn_iTCa-93" target="IgEq9ysrK7WXlDn_iTCa-95">
          <mxGeometry relative="1" as="geometry" />
        </mxCell>
        <mxCell id="IgEq9ysrK7WXlDn_iTCa-98" value="" style="edgeStyle=orthogonalEdgeStyle;rounded=0;orthogonalLoop=1;jettySize=auto;html=1;" edge="1" parent="1" source="IgEq9ysrK7WXlDn_iTCa-93" target="IgEq9ysrK7WXlDn_iTCa-97">
          <mxGeometry relative="1" as="geometry" />
        </mxCell>
        <mxCell id="IgEq9ysrK7WXlDn_iTCa-93" value="oven at right temp?" style="strokeWidth=2;html=1;shape=mxgraph.flowchart.decision;whiteSpace=wrap;fillColor=#dae8fc;strokeColor=#6c8ebf;" vertex="1" parent="1">
          <mxGeometry x="795" y="550" width="100" height="100" as="geometry" />
        </mxCell>
        <mxCell id="IgEq9ysrK7WXlDn_iTCa-101" value="" style="edgeStyle=orthogonalEdgeStyle;rounded=0;orthogonalLoop=1;jettySize=auto;html=1;" edge="1" parent="1" source="IgEq9ysrK7WXlDn_iTCa-95" target="IgEq9ysrK7WXlDn_iTCa-100">
          <mxGeometry relative="1" as="geometry" />
        </mxCell>
        <mxCell id="IgEq9ysrK7WXlDn_iTCa-95" value="Put cookie pan in oven" style="rounded=1;whiteSpace=wrap;html=1;absoluteArcSize=1;arcSize=14;strokeWidth=2;" vertex="1" parent="1">
          <mxGeometry x="650" y="570" width="85" height="60" as="geometry" />
        </mxCell>
        <mxCell id="IgEq9ysrK7WXlDn_iTCa-97" value="Wait 3 minutes" style="strokeWidth=2;html=1;shape=mxgraph.flowchart.delay;whiteSpace=wrap;" vertex="1" parent="1">
          <mxGeometry x="795" y="700" width="100" height="60" as="geometry" />
        </mxCell>
        <mxCell id="IgEq9ysrK7WXlDn_iTCa-99" value="" style="endArrow=classic;html=1;rounded=0;exitX=0.81;exitY=0;exitDx=0;exitDy=0;exitPerimeter=0;entryX=1;entryY=0.5;entryDx=0;entryDy=0;entryPerimeter=0;" edge="1" parent="1" source="IgEq9ysrK7WXlDn_iTCa-97" target="IgEq9ysrK7WXlDn_iTCa-93">
          <mxGeometry width="50" height="50" relative="1" as="geometry">
            <mxPoint x="860" y="680" as="sourcePoint" />
            <mxPoint x="910" y="630" as="targetPoint" />
          </mxGeometry>
        </mxCell>
        <mxCell id="IgEq9ysrK7WXlDn_iTCa-103" value="" style="edgeStyle=orthogonalEdgeStyle;rounded=0;orthogonalLoop=1;jettySize=auto;html=1;" edge="1" parent="1" source="IgEq9ysrK7WXlDn_iTCa-100" target="IgEq9ysrK7WXlDn_iTCa-102">
          <mxGeometry relative="1" as="geometry" />
        </mxCell>
        <mxCell id="IgEq9ysrK7WXlDn_iTCa-100" value="Set Timer for N-2 minutes" style="rounded=1;whiteSpace=wrap;html=1;absoluteArcSize=1;arcSize=14;strokeWidth=2;" vertex="1" parent="1">
          <mxGeometry x="530" y="570" width="85" height="60" as="geometry" />
        </mxCell>
        <mxCell id="IgEq9ysrK7WXlDn_iTCa-106" value="" style="edgeStyle=orthogonalEdgeStyle;rounded=0;orthogonalLoop=1;jettySize=auto;html=1;" edge="1" parent="1" source="IgEq9ysrK7WXlDn_iTCa-102" target="IgEq9ysrK7WXlDn_iTCa-104">
          <mxGeometry relative="1" as="geometry" />
        </mxCell>
        <mxCell id="IgEq9ysrK7WXlDn_iTCa-102" value="Cleaning Up" style="rounded=1;whiteSpace=wrap;html=1;absoluteArcSize=1;arcSize=14;strokeWidth=2;" vertex="1" parent="1">
          <mxGeometry x="390" y="570" width="85" height="60" as="geometry" />
        </mxCell>
        <mxCell id="IgEq9ysrK7WXlDn_iTCa-111" value="YES" style="edgeStyle=orthogonalEdgeStyle;rounded=0;orthogonalLoop=1;jettySize=auto;html=1;" edge="1" parent="1" source="IgEq9ysrK7WXlDn_iTCa-104" target="IgEq9ysrK7WXlDn_iTCa-109">
          <mxGeometry relative="1" as="geometry" />
        </mxCell>
        <mxCell id="IgEq9ysrK7WXlDn_iTCa-104" value="Timer Going&lt;div&gt;Off?&lt;/div&gt;" style="strokeWidth=2;html=1;shape=mxgraph.flowchart.decision;whiteSpace=wrap;fillColor=#dae8fc;strokeColor=#6c8ebf;" vertex="1" parent="1">
          <mxGeometry x="240" y="550" width="100" height="100" as="geometry" />
        </mxCell>
        <mxCell id="IgEq9ysrK7WXlDn_iTCa-107" value="NO" style="endArrow=classic;html=1;rounded=0;exitX=0.5;exitY=1;exitDx=0;exitDy=0;exitPerimeter=0;entryX=0.5;entryY=1;entryDx=0;entryDy=0;" edge="1" parent="1" source="IgEq9ysrK7WXlDn_iTCa-104" target="IgEq9ysrK7WXlDn_iTCa-102">
          <mxGeometry width="50" height="50" relative="1" as="geometry">
            <mxPoint x="886" y="710" as="sourcePoint" />
            <mxPoint x="905" y="610" as="targetPoint" />
            <Array as="points">
              <mxPoint x="433" y="650" />
            </Array>
          </mxGeometry>
        </mxCell>
        <mxCell id="IgEq9ysrK7WXlDn_iTCa-113" value="" style="edgeStyle=orthogonalEdgeStyle;rounded=0;orthogonalLoop=1;jettySize=auto;html=1;" edge="1" parent="1" source="IgEq9ysrK7WXlDn_iTCa-109" target="IgEq9ysrK7WXlDn_iTCa-112">
          <mxGeometry relative="1" as="geometry" />
        </mxCell>
        <mxCell id="IgEq9ysrK7WXlDn_iTCa-116" value="NO" style="edgeLabel;html=1;align=center;verticalAlign=middle;resizable=0;points=[];" vertex="1" connectable="0" parent="IgEq9ysrK7WXlDn_iTCa-113">
          <mxGeometry x="-0.6889" y="-3" relative="1" as="geometry">
            <mxPoint as="offset" />
          </mxGeometry>
        </mxCell>
        <mxCell id="IgEq9ysrK7WXlDn_iTCa-109" value="Are Cookies Done?" style="strokeWidth=2;html=1;shape=mxgraph.flowchart.decision;whiteSpace=wrap;fillColor=#dae8fc;strokeColor=#6c8ebf;" vertex="1" parent="1">
          <mxGeometry x="70" y="550" width="100" height="100" as="geometry" />
        </mxCell>
        <mxCell id="IgEq9ysrK7WXlDn_iTCa-115" value="" style="edgeStyle=orthogonalEdgeStyle;rounded=0;orthogonalLoop=1;jettySize=auto;html=1;entryX=1;entryY=1;entryDx=0;entryDy=0;" edge="1" parent="1" source="IgEq9ysrK7WXlDn_iTCa-112" target="IgEq9ysrK7WXlDn_iTCa-102">
          <mxGeometry relative="1" as="geometry">
            <mxPoint x="242.5" y="710" as="targetPoint" />
          </mxGeometry>
        </mxCell>
        <mxCell id="IgEq9ysrK7WXlDn_iTCa-112" value="Set Timer for 2 minutes" style="rounded=1;whiteSpace=wrap;html=1;absoluteArcSize=1;arcSize=14;strokeWidth=2;" vertex="1" parent="1">
          <mxGeometry x="77.5" y="680" width="85" height="60" as="geometry" />
        </mxCell>
        <mxCell id="IgEq9ysrK7WXlDn_iTCa-119" value="" style="edgeStyle=orthogonalEdgeStyle;rounded=0;orthogonalLoop=1;jettySize=auto;html=1;" edge="1" parent="1" source="IgEq9ysrK7WXlDn_iTCa-117" target="IgEq9ysrK7WXlDn_iTCa-118">
          <mxGeometry relative="1" as="geometry" />
        </mxCell>
        <mxCell id="IgEq9ysrK7WXlDn_iTCa-117" value="Remove Cookies and let Cool 5 minutes" style="rounded=1;whiteSpace=wrap;html=1;absoluteArcSize=1;arcSize=14;strokeWidth=2;" vertex="1" parent="1">
          <mxGeometry x="240" y="750" width="85" height="60" as="geometry" />
        </mxCell>
        <mxCell id="IgEq9ysrK7WXlDn_iTCa-121" value="" style="edgeStyle=orthogonalEdgeStyle;rounded=0;orthogonalLoop=1;jettySize=auto;html=1;" edge="1" parent="1" source="IgEq9ysrK7WXlDn_iTCa-118" target="IgEq9ysrK7WXlDn_iTCa-120">
          <mxGeometry relative="1" as="geometry" />
        </mxCell>
        <mxCell id="IgEq9ysrK7WXlDn_iTCa-118" value="EAT COOKIES" style="rounded=1;whiteSpace=wrap;html=1;absoluteArcSize=1;arcSize=14;strokeWidth=2;" vertex="1" parent="1">
          <mxGeometry x="407.5" y="750" width="85" height="60" as="geometry" />
        </mxCell>
        <mxCell id="IgEq9ysrK7WXlDn_iTCa-120" value="STOP" style="strokeWidth=2;html=1;shape=mxgraph.flowchart.terminator;whiteSpace=wrap;fillColor=#f8cecc;strokeColor=#b85450;" vertex="1" parent="1">
          <mxGeometry x="543" y="750" width="100" height="60" as="geometry" />
        </mxCell>
        <mxCell id="IgEq9ysrK7WXlDn_iTCa-125" value="" style="edgeStyle=orthogonalEdgeStyle;rounded=0;orthogonalLoop=1;jettySize=auto;html=1;" edge="1" parent="1" source="IgEq9ysrK7WXlDn_iTCa-122" target="IgEq9ysrK7WXlDn_iTCa-74">
          <mxGeometry relative="1" as="geometry" />
        </mxCell>
        <mxCell id="IgEq9ysrK7WXlDn_iTCa-126" value="YES" style="edgeLabel;html=1;align=center;verticalAlign=middle;resizable=0;points=[];" vertex="1" connectable="0" parent="IgEq9ysrK7WXlDn_iTCa-125">
          <mxGeometry x="-0.2" y="3" relative="1" as="geometry">
            <mxPoint x="-1" y="-2" as="offset" />
          </mxGeometry>
        </mxCell>
        <mxCell id="IgEq9ysrK7WXlDn_iTCa-128" value="" style="edgeStyle=orthogonalEdgeStyle;rounded=0;orthogonalLoop=1;jettySize=auto;html=1;" edge="1" parent="1" source="IgEq9ysrK7WXlDn_iTCa-122" target="IgEq9ysrK7WXlDn_iTCa-127">
          <mxGeometry relative="1" as="geometry" />
        </mxCell>
        <mxCell id="IgEq9ysrK7WXlDn_iTCa-122" value="Still Make Cookies?" style="strokeWidth=2;html=1;shape=mxgraph.flowchart.decision;whiteSpace=wrap;fillColor=#dae8fc;strokeColor=#6c8ebf;" vertex="1" parent="1">
          <mxGeometry x="450" y="300" width="100" height="100" as="geometry" />
        </mxCell>
        <mxCell id="IgEq9ysrK7WXlDn_iTCa-127" value="give up" style="strokeWidth=2;html=1;shape=mxgraph.flowchart.terminator;whiteSpace=wrap;fillColor=#f8cecc;strokeColor=#b85450;" vertex="1" parent="1">
          <mxGeometry x="450" y="210" width="100" height="60" as="geometry" />
        </mxCell>
      </root>
    </mxGraphModel>
  </diagram>
</mxfile>
